<svg width="30" height="30" viewBox="0 0 30 30" fill="none" xmlns="http://www.w3.org/2000/svg">
<g clip-path="url(#clip0_1_2)">
<path d="M26.9287 8.88C26.9462 9.14375 26.9462 9.40874 26.9462 9.67499C26.9462 17.8087 20.7537 27.1875 9.43375 27.1875V27.1825C6.09 27.1875 2.815 26.23 0 24.4237C0.48625 24.4825 0.975 24.5112 1.465 24.5125C4.2375 24.515 6.93 23.585 9.10875 21.8725C6.475 21.8225 4.165 20.105 3.35875 17.5975C4.28125 17.775 5.23125 17.7387 6.1375 17.4925C3.265 16.9125 1.2 14.3887 1.2 11.4587C1.2 11.4325 1.2 11.4062 1.2 11.3812C2.05625 11.8587 3.01375 12.1225 3.99375 12.1512C1.28875 10.345 0.45375 6.7475 2.0875 3.935C5.2125 7.78 9.82375 10.1175 14.7725 10.3662C14.2762 8.22875 14.955 5.98875 16.5525 4.485C19.0312 2.15375 22.93 2.27375 25.2612 4.7525C26.64 4.48125 27.9612 3.975 29.17 3.25875C28.71 4.68375 27.7487 5.89375 26.4637 6.66375C27.685 6.5175 28.8762 6.19125 30 5.69375C29.1737 6.93 28.1337 8.00875 26.9287 8.88Z" fill="black"/>
</g>
<defs>
<clipPath id="clip0_1_2">
<rect width="30" height="30" fill="white"/>
</clipPath>
</defs>
</svg>
