<svg width="35" height="35" viewBox="0 0 35 35" fill="none" xmlns="http://www.w3.org/2000/svg">
<path d="M2.34335 26.25C3.54964 28.3436 6.22478 29.0629 8.31839 27.8566C8.31983 27.8558 8.32119 27.8549 8.32263 27.8541L8.97157 27.4793C10.1966 28.5274 11.6047 29.3402 13.1249 29.8768V30.625C13.1249 33.0412 15.0837 35 17.5 35C19.9163 35 21.8751 33.0412 21.8751 30.625V29.8769C23.3955 29.3394 24.8037 28.5256 26.0284 27.4764L26.6803 27.8527C28.7744 29.0608 31.4515 28.3426 32.6596 26.2485C33.8677 24.1544 33.1495 21.4774 31.0554 20.2693L30.4079 19.896C30.6994 18.31 30.6994 16.6841 30.4079 15.0981L31.0554 14.7247C33.1495 13.5166 33.8677 10.8397 32.6596 8.74556C31.4515 6.6515 28.7745 5.93325 26.6803 7.14137L26.0314 7.51618C24.8051 6.46939 23.3961 5.65811 21.8751 5.12313V4.375C21.8751 1.95877 19.9163 0 17.5 0C15.0837 0 13.1249 1.95877 13.1249 4.375V5.12313C11.6045 5.66063 10.1963 6.47438 8.97157 7.52356L8.31969 7.14588C6.22554 5.9377 3.54854 6.65595 2.34041 8.75C1.13228 10.8441 1.85047 13.5211 3.94462 14.7292L4.59213 15.1025C4.30064 16.6885 4.30064 18.3144 4.59213 19.9004L3.94462 20.2737C1.85628 21.4851 1.14041 24.1568 2.34335 26.25ZM17.5 11.6667C20.7217 11.6667 23.3334 14.2784 23.3334 17.5C23.3334 20.7216 20.7217 23.3333 17.5 23.3333C14.2783 23.3333 11.6666 20.7216 11.6666 17.5C11.6666 14.2784 14.2783 11.6667 17.5 11.6667Z" fill="black"/>
</svg>
