<svg width="30" height="30" viewBox="0 0 30 30" fill="none" xmlns="http://www.w3.org/2000/svg">
<g clip-path="url(#clip0_1_9)">
<path d="M29.8925 21.8362C29.6838 21.2687 29.2875 20.965 28.835 20.7137C28.75 20.6637 28.6713 20.6238 28.605 20.5925C28.47 20.5225 28.3325 20.455 28.195 20.385C26.7863 19.6375 25.685 18.695 24.9213 17.5775C24.705 17.2625 24.5163 16.93 24.3588 16.5813C24.2938 16.395 24.2975 16.29 24.3438 16.1925C24.39 16.1175 24.4513 16.0537 24.5238 16.005C24.7663 15.845 25.0163 15.6825 25.185 15.5725C25.4863 15.3763 25.7263 15.2225 25.88 15.1125C26.4588 14.7075 26.8638 14.2775 27.1163 13.7975C27.4738 13.1263 27.52 12.3325 27.2463 11.6225C26.8625 10.6138 25.91 9.9875 24.7563 9.9875C24.5125 9.9875 24.27 10.0137 24.0325 10.0637C23.9688 10.0775 23.905 10.0925 23.8438 10.1087C23.8538 9.41875 23.8388 8.69125 23.7775 7.97375C23.56 5.45375 22.6775 4.13375 21.7575 3.08C21.1688 2.42 20.475 1.86125 19.7038 1.4275C18.3088 0.63125 16.725 0.22625 15 0.22625C13.275 0.22625 11.7 0.63125 10.3025 1.4275C9.53001 1.8625 8.83376 2.4225 8.24501 3.08375C7.32501 4.13625 6.44251 5.46 6.22501 7.9775C6.16376 8.69375 6.14876 9.42625 6.15876 10.1112C6.09626 10.095 6.03376 10.0813 5.97126 10.0663C5.73251 10.015 5.49001 9.99 5.24626 9.99C4.09126 9.99 3.13751 10.6163 2.75501 11.625C2.47876 12.335 2.52501 13.13 2.88126 13.8025C3.13501 14.2837 3.53876 14.7125 4.11876 15.1175C4.27251 15.225 4.51251 15.38 4.81376 15.5775C4.97626 15.6837 5.21501 15.8387 5.44876 15.9925C5.53126 16.045 5.60001 16.115 5.65251 16.1975C5.70126 16.2988 5.70251 16.4063 5.63001 16.605C5.47501 16.9463 5.29001 17.2725 5.07751 17.58C4.33126 18.675 3.26251 19.6 1.89876 20.3413C1.17626 20.725 0.425008 20.98 0.107508 21.8425C-0.132492 22.4938 0.0237581 23.2338 0.632508 23.8575C0.855008 24.09 1.11376 24.2862 1.39876 24.4375C1.99126 24.7625 2.62126 25.015 3.27376 25.1875C3.40876 25.2225 3.53626 25.28 3.65251 25.3575C3.87376 25.5512 3.84251 25.8438 4.13751 26.2713C4.28626 26.4925 4.47376 26.6838 4.69251 26.835C5.31126 27.2625 6.00751 27.2888 6.74501 27.3175C7.41126 27.3425 8.16626 27.3725 9.02876 27.6562C9.38626 27.7737 9.75751 28.0025 10.1875 28.27C11.22 28.905 12.6338 29.7725 14.9988 29.7725C17.3638 29.7725 18.7875 28.9 19.8275 28.2625C20.255 28 20.6238 27.7738 20.9713 27.6588C21.8338 27.3738 22.5888 27.345 23.255 27.32C23.9925 27.2925 24.6888 27.265 25.3075 26.8375C25.5663 26.6575 25.7825 26.4212 25.9388 26.1475C26.1513 25.7862 26.145 25.5337 26.345 25.3575C26.4538 25.2837 26.5738 25.2288 26.7013 25.195C27.3638 25.0213 28.0025 24.7675 28.6025 24.4375C28.905 24.2762 29.1775 24.0625 29.4075 23.8075L29.415 23.7975C29.9825 23.19 30.1263 22.4712 29.8925 21.8362ZM28.2375 22.5575C28.2 22.6737 28.0713 22.81 27.79 22.9662C26.5075 23.675 25.655 23.5988 24.9925 24.0263C24.7463 24.185 24.6713 24.4237 24.6313 24.6662C24.6138 24.7662 24.6038 24.8675 24.5888 24.9638C24.5575 25.165 24.51 25.345 24.3538 25.4525C23.8513 25.8 22.365 25.4288 20.445 26.0625C18.8613 26.5863 17.8513 28.0912 15.0038 28.0912C12.155 28.0912 11.1688 26.5888 9.55876 26.0588C7.64251 25.425 6.15376 25.7963 5.64876 25.45C5.24001 25.1688 5.57251 24.3862 5.01001 24.0237C4.34626 23.5975 3.49376 23.6725 2.21251 22.9688C1.80001 22.7413 1.71501 22.5575 1.76501 22.415C1.76501 22.4112 1.76626 22.4087 1.76876 22.405C1.82251 22.2687 1.99876 22.17 2.13126 22.1062C4.30876 21.0525 5.62876 19.7288 6.41876 18.595C6.57751 18.3675 6.71376 18.1488 6.83251 17.94C7.38501 16.9675 7.53501 16.24 7.55001 16.1275C7.59001 15.8163 7.63376 15.57 7.29001 15.2538C6.95876 14.9463 5.48626 14.035 5.07751 13.75C4.79876 13.555 4.51001 13.3212 4.35501 13.01C4.01751 12.3337 4.54626 11.675 5.24251 11.675C5.36626 11.675 5.49001 11.69 5.61126 11.7163C6.35251 11.8775 7.07376 12.2487 7.49001 12.3487C7.76501 12.415 7.94501 12.29 7.92876 12.0037C7.88126 11.1912 7.76626 9.61 7.89376 8.13125C7.95626 7.405 8.10251 6.6675 8.37001 5.98C8.62751 5.31875 9.03876 4.72875 9.50251 4.1975C9.87751 3.76875 11.6338 1.9125 14.9963 1.9125C17.6213 1.9125 19.2713 3.04125 20.0463 3.73875C21.2825 4.875 21.9625 6.46375 22.1025 8.1225C22.23 9.60125 22.12 11.1837 22.0675 11.995C22.05 12.2712 22.2438 12.4075 22.5063 12.3413C22.9238 12.24 23.6438 11.8688 24.3863 11.7075C24.9338 11.5888 25.5688 11.7563 25.7188 12.3588C25.8425 12.875 25.5425 13.3075 24.9213 13.7413C24.5125 14.0263 23.04 14.9362 22.7088 15.2437C22.365 15.5612 22.41 15.8063 22.45 16.1188C22.4688 16.2638 22.7038 17.3963 23.7038 18.76C23.705 18.7613 23.705 18.7625 23.7063 18.7625C23.7475 18.8188 23.79 18.8763 23.835 18.9338C24.06 19.2263 24.3213 19.5288 24.6225 19.8325C25.4025 20.6175 26.455 21.415 27.8688 22.0975C27.985 22.1537 28.1188 22.2237 28.195 22.3312C28.2413 22.395 28.265 22.48 28.2375 22.5575Z" fill="black"/>
</g>
<defs>
<clipPath id="clip0_1_9">
<rect width="30" height="30" fill="white"/>
</clipPath>
</defs>
</svg>
