<svg width="30" height="30" viewBox="0 0 30 30" fill="none" xmlns="http://www.w3.org/2000/svg">
<path d="M22.4012 1.88125C22.4008 2.37837 22.203 2.85496 21.8512 3.20625L12.2612 12.7963C11.971 13.0865 11.7407 13.431 11.5836 13.8102C11.4265 14.1894 11.3457 14.5958 11.3457 15.0063C11.3457 15.4167 11.4265 15.8231 11.5836 16.2023C11.7407 16.5815 11.971 16.9261 12.2612 17.2163L21.8387 26.7938C22.1803 27.1474 22.3693 27.621 22.365 28.1126C22.3607 28.6043 22.1635 29.0745 21.8159 29.4222C21.4683 29.7698 20.998 29.967 20.5064 29.9713C20.0148 29.9755 19.5411 29.7866 19.1875 29.445L9.60999 19.875C8.3222 18.5847 7.59894 16.8361 7.59894 15.0131C7.59894 13.1901 8.3222 11.4416 9.60999 10.1513L19.2 0.555003C19.4622 0.292608 19.7964 0.113894 20.1602 0.0414766C20.524 -0.0309411 20.9012 0.0061916 21.2439 0.148176C21.5866 0.29016 21.8795 0.530615 22.0855 0.839114C22.2915 1.14761 22.4014 1.51029 22.4012 1.88125V1.88125Z" fill="black"/>
</svg>
